<?xml version="1.0" encoding="utf-8"?>
<!-- Generator: Adobe Illustrator 21.1.0, SVG Export Plug-In . SVG Version: 6.00 Build 0)  -->
<svg version="1.1" id="Layer_1" xmlns="http://www.w3.org/2000/svg" xmlns:xlink="http://www.w3.org/1999/xlink" x="0px" y="0px"
	 viewBox="0 0 256 256" style="enable-background:new 0 0 256 256;" xml:space="preserve">
<style type="text/css">
	.st0{fill:#36485A;}
	.st1{fill:#2F3B47;}
	.st2{fill:#27323D;}
	.st3{fill-rule:evenodd;clip-rule:evenodd;fill:url(#SVGID_1_);}
	.st4{fill:#FFFFFF;}
	.st5{fill:url(#SVGID_2_);}
</style>
<rect x="-0.5" class="st0" width="257.1" height="256"/>
<polyline class="st1" points="-0.5,0 256.7,256 -0.5,256 -0.5,0 "/>
<path class="st2" d="M256,128l-57.3-67.2L100.5,54L55,97l4,61.5l5.5,26l-3.8,7.3l56.8,64c0,0,139.7-0.3,139.2,0.2"/>
<linearGradient id="SVGID_1_" gradientUnits="userSpaceOnUse" x1="79.3824" y1="128.1282" x2="183.5853" y2="128.1282">
	<stop  offset="0" style="stop-color:#C25152"/>
	<stop  offset="0.9969" style="stop-color:#C25152"/>
</linearGradient>
<circle class="st3" cx="131.5" cy="128.1" r="52.1"/>
<g>
	<path class="st4" d="M129.9,138.4c-13.5,0-24.5-11-24.5-24.5c0-13.5,11-24.5,24.5-24.5c13.5,0,24.5,11,24.5,24.5h-7.8
		c0-9.2-7.5-16.6-16.6-16.6c-9.2,0-16.6,7.5-16.6,16.6s7.5,16.6,16.6,16.6V138.4z"/>
</g>
<g>
	<path class="st4" d="M132.2,165.4c-13.5,0-24.5-11-24.5-24.5h7.8c0,9.2,7.5,16.6,16.6,16.6c9.2,0,16.6-7.5,16.6-16.6
		c0-9.2-7.5-16.6-16.6-16.6v-7.8c13.5,0,24.5,11,24.5,24.5C156.6,154.5,145.7,165.4,132.2,165.4z"/>
</g>
<g>
	
		<linearGradient id="SVGID_2_" gradientUnits="userSpaceOnUse" x1="-30.9267" y1="289.5476" x2="159.4145" y2="289.5476" gradientTransform="matrix(0.7071 -0.7071 0.7071 0.7071 -118.7787 -31.2365)">
		<stop  offset="0" style="stop-color:#C25152"/>
		<stop  offset="0.9969" style="stop-color:#C25152"/>
	</linearGradient>
	<path class="st5" d="M198.7,195.4c-37.1,37.1-97.5,37.1-134.6,0C27,158.3,27,97.9,64.1,60.8s97.5-37.1,134.6,0l-21.5,21.5
		c-25.2-25.2-66.3-25.2-91.5,0c-25.2,25.2-25.2,66.3,0,91.5s66.3,25.2,91.5,0L198.7,195.4z"/>
</g>
</svg>
